<svg width="48" height="53" viewBox="0 0 48 53" fill="none" xmlns="http://www.w3.org/2000/svg">
<g clip-path="url(#clip0_53_448)">
<path d="M4.11328 48.0685L0.349304 47.4088C0.248226 47.3784 0.15961 47.3161 0.0966644 47.231C0.0337189 47.1459 -0.000185961 47.0427 5.58757e-06 46.9367V10.169C-0.000421639 10.0795 0.0236581 9.99172 0.0696016 9.91512C0.115545 9.83853 0.181581 9.77612 0.260475 9.73473L22.9949 0.0707225C23.0693 0.0309866 23.1528 0.0113105 23.237 0.0136082C23.3213 0.015906 23.4035 0.0401019 23.4757 0.0838363C23.5478 0.127571 23.6075 0.189352 23.6488 0.263158C23.6902 0.336965 23.7118 0.420279 23.7116 0.504979V6.92949C23.7118 7.02662 23.6833 7.12162 23.6296 7.20244C23.576 7.28325 23.4998 7.34624 23.4105 7.38342L5.04224 14.6976C4.95295 14.7348 4.87665 14.7978 4.82304 14.8786C4.76943 14.9594 4.74092 15.0544 4.74112 15.1515V24.1967C4.74088 24.271 4.75745 24.3444 4.78957 24.4113C4.82169 24.4782 4.86852 24.5369 4.92653 24.583C4.98454 24.629 5.05221 24.6612 5.12442 24.6771C5.19663 24.693 5.27149 24.6923 5.34336 24.6748L23.1214 20.5562C23.1933 20.5388 23.2681 20.538 23.3403 20.5539C23.4125 20.5699 23.4802 20.6021 23.5382 20.6481C23.5962 20.6942 23.643 20.7529 23.6752 20.8198C23.7073 20.8867 23.7239 20.9601 23.7236 21.0344V27.6919C23.7234 27.8141 23.678 27.9318 23.5962 28.0221C23.5143 28.1125 23.402 28.169 23.281 28.1806L5.18226 31.4171C5.06125 31.4287 4.94889 31.4852 4.86706 31.5756C4.78524 31.6659 4.73981 31.7837 4.73961 31.9058V47.5979C4.73969 47.6742 4.72204 47.7495 4.68806 47.8178C4.65408 47.886 4.60471 47.9454 4.54389 47.9911C4.48306 48.0368 4.41246 48.0676 4.3377 48.081C4.26295 48.0944 4.1861 48.0902 4.11328 48.0685Z" fill="currentColor"/>
<path d="M33.8209 30.1702C33.8207 30.2384 33.8065 30.3058 33.779 30.3682C33.7515 30.4305 33.7115 30.4864 33.6613 30.5324C33.6112 30.5784 33.5521 30.6133 33.4879 30.6351C33.4236 30.6569 33.3555 30.665 33.2879 30.6589L29.2966 30.143C29.1739 30.1335 29.0594 30.0779 28.9757 29.9873C28.892 29.8968 28.8453 29.7778 28.8449 29.6542L28.9186 9.81784C28.9194 9.66277 28.8756 9.51079 28.7925 9.3801C28.7095 9.24941 28.5907 9.14556 28.4504 9.08097L26.0823 8.00747C25.9947 7.96891 25.9203 7.90533 25.8683 7.82462C25.8164 7.74392 25.7892 7.64965 25.7902 7.55355V1.27429C25.7901 1.1895 25.8119 1.10614 25.8534 1.03234C25.8949 0.958542 25.9548 0.896826 26.0271 0.853227C26.0995 0.809628 26.1819 0.785638 26.2662 0.78359C26.3506 0.781543 26.434 0.801512 26.5083 0.84155L29.5314 2.46278C29.5509 2.47037 29.57 2.47895 29.5886 2.4885L33.5514 4.54175C33.62 4.57728 33.679 4.62924 33.723 4.69305C33.7798 4.77466 33.8103 4.87185 33.8103 4.97146L33.8209 30.1702Z" fill="currentColor"/>
<path d="M23.6074 12.436V15.7209C23.6076 15.8272 23.5733 15.9306 23.5097 16.0155C23.4461 16.1004 23.3568 16.1622 23.2551 16.1915L14.5693 18.6124C14.4965 18.6335 14.4198 18.6373 14.3453 18.6235C14.2707 18.6097 14.2004 18.5787 14.1398 18.5329C14.0792 18.4872 14.03 18.4279 13.9961 18.3597C13.9623 18.2916 13.9446 18.2165 13.9445 18.1403V15.2125C13.9448 15.1111 13.9762 15.0122 14.0344 14.9294C14.0925 14.8465 14.1747 14.7837 14.2697 14.7495L22.9555 11.973C23.0292 11.9469 23.1081 11.9389 23.1855 11.9498C23.2629 11.9606 23.3367 11.9899 23.4005 12.0352C23.4643 12.0806 23.5164 12.1406 23.5524 12.2103C23.5884 12.2801 23.6073 12.3575 23.6074 12.436Z" fill="currentColor"/>
<path d="M7.11806 17.1316L11.397 15.6095C11.4707 15.5834 11.5496 15.5754 11.627 15.5862C11.7044 15.5971 11.7781 15.6264 11.842 15.6717C11.9058 15.717 11.9579 15.7771 11.9939 15.8468C12.0299 15.9166 12.0487 15.9939 12.0489 16.0725V18.8066C12.049 18.9129 12.0147 19.0163 11.9512 19.1012C11.8876 19.1861 11.7982 19.2479 11.6966 19.2772L7.41767 20.5315C7.34484 20.5526 7.26813 20.5564 7.19358 20.5426C7.11904 20.5288 7.0487 20.4978 6.98812 20.4521C6.92754 20.4063 6.87836 20.347 6.84448 20.2789C6.81059 20.2107 6.79291 20.1356 6.79285 20.0594V17.5946C6.79312 17.4932 6.82449 17.3944 6.88268 17.3115C6.94088 17.2287 7.02306 17.1659 7.11806 17.1316Z" fill="currentColor"/>
<path d="M28.8327 44.751L25.8381 45.0672L25.8532 45.2185L28.8327 44.9038V44.7525V44.751ZM24.9182 47.125H24.7676V50.1511H24.9182V47.125ZM28.8026 51.0242L25.8622 51.64L25.8923 51.7913L28.6957 51.2012H28.7108H28.7469H28.7575H28.7785H28.7966L28.8297 51.1937L28.8011 51.0529L28.8026 51.0242ZM28.8327 45.1126H28.6822V48.1388H28.8327V45.1126Z" fill="currentColor"/>
<path d="M23.6643 45.302L24.7633 45.1855V52.0277L23.6899 52.2531C23.6531 52.2607 23.6152 52.2607 23.5784 52.2531L7.24437 48.7337C7.18275 48.7203 7.12752 48.6861 7.08783 48.6368C7.04813 48.5876 7.02634 48.5262 7.02606 48.4628V43.7254C7.02608 43.687 7.03412 43.6489 7.04965 43.6138C7.06517 43.5787 7.08785 43.5472 7.11621 43.5214C7.14458 43.4956 7.178 43.4761 7.21434 43.464C7.25067 43.452 7.28911 43.4477 7.32718 43.4515L23.6055 45.302H23.6643Z" fill="currentColor"/>
<path d="M47.7168 42.7603H47.6867L44.7222 43.0735L44.7387 43.2248L47.7032 42.9116H47.7168V42.7603ZM41.7275 43.3913L38.7329 43.7075L38.7495 43.8588L41.7441 43.5426L41.7275 43.3913ZM35.7383 44.0237L33.7012 44.2446V45.219H33.8518V44.3808L35.7473 44.1811L35.7308 44.0298L35.7383 44.0237ZM33.8518 48.2392H33.7012V49.9943V50.1456L33.8518 50.1138L34.7838 49.9187L34.7536 49.7674L33.8503 49.9565V48.2392H33.8518ZM40.6495 48.5418L37.7016 49.1576L37.7317 49.3089L38.1834 49.2166H38.2045H38.215H38.2255L40.6872 48.7006L40.6571 48.5493L40.6495 48.5418ZM46.5439 47.3071L43.596 47.9244L43.6276 48.0757L46.5756 47.4584L46.5439 47.3071ZM47.7168 42.7603V42.9116C47.733 42.9114 47.7491 42.9146 47.7641 42.9208C47.7792 42.927 47.7928 42.9363 47.8041 42.9479C47.8271 42.9713 47.8401 43.0028 47.8403 43.0357V45.5111H47.9908V43.0342C47.9906 42.9645 47.9643 42.8975 47.9172 42.8465C47.87 42.7954 47.8055 42.7641 47.7364 42.7588L47.7168 42.7603Z" fill="currentColor"/>
<path d="M33.7209 44.2373V50.1534L28.8398 51.1748V44.7533L33.7209 44.2373Z" fill="currentColor"/>
<path d="M23.7139 33.1152L24.7573 33.2045V41.2949L23.723 41.3691H23.6838L7.28051 40.1162C7.21128 40.1113 7.14651 40.0801 7.09928 40.0289C7.05206 39.9778 7.02589 39.9106 7.02606 39.8409V35.0822C7.0264 35.0109 7.05415 34.9424 7.10352 34.8911C7.15289 34.8397 7.22008 34.8096 7.29105 34.8069L23.6929 33.1152H23.7139Z" fill="currentColor"/>
<path d="M33.7012 33.9644V36.9905H33.8518V33.9765L33.7012 33.9644ZM33.8518 40.0167H33.7012V40.4993V40.6506L33.8518 40.64L36.0756 40.4797L36.065 40.3283L33.8518 40.4887V40.0167ZM42.0723 39.8956L39.0611 40.112L39.0717 40.2633H39.1048H39.2192L42.0799 40.0575L42.0693 39.9062L42.0723 39.8956ZM47.8312 39.3872C47.8258 39.4141 47.8119 39.4385 47.7915 39.4568C47.7712 39.475 47.7455 39.4862 47.7183 39.4886L45.0745 39.6792L45.0865 39.8305L47.7288 39.6399H47.8056C47.8497 39.6226 47.8887 39.5944 47.9189 39.5579C47.9492 39.5214 47.9698 39.4778 47.9788 39.4311L47.8282 39.4039L47.8312 39.3872ZM46.0862 35.0174L46.0727 35.1688L47.7168 35.3125C47.7489 35.3141 47.7791 35.328 47.8013 35.3514C47.8234 35.3747 47.8358 35.4058 47.8357 35.4381V36.3928H47.9863V35.4335C47.9851 35.3619 47.9564 35.2936 47.9062 35.2428C47.8559 35.192 47.788 35.1627 47.7168 35.1612L46.0832 35.022L46.0862 35.0174ZM40.0849 34.5075L40.0714 34.6589L43.072 34.9146L43.0856 34.7633L42.0889 34.6785H42.0648H42.0362H41.9955L40.0789 34.5151L40.0849 34.5075ZM34.0837 33.9961L34.0716 34.1474L37.0707 34.4047L37.0843 34.2533L34.6437 34.0461H34.5926H34.5534L34.0852 34.0052L34.0837 33.9961Z" fill="currentColor"/>
<path d="M33.7209 33.9641V40.6504L28.8398 41.0015V33.5496L33.7209 33.9641Z" fill="currentColor"/>
<path d="M41.5201 9.13894V31.1617C41.5203 31.2301 41.5061 31.2978 41.4786 31.3604C41.4512 31.4229 41.411 31.4791 41.3606 31.5251C41.3103 31.5711 41.2509 31.606 41.1863 31.6276C41.1218 31.6492 41.0534 31.657 40.9857 31.6505L36.2009 31.0452C36.0795 31.0339 35.9667 30.9773 35.8848 30.8865C35.8029 30.7958 35.7577 30.6775 35.7582 30.555L35.7974 6.67868C35.7977 6.59465 35.8195 6.51211 35.8606 6.43894C35.9017 6.36576 35.9608 6.3044 36.0322 6.2607C36.1036 6.217 36.185 6.19242 36.2686 6.1893C36.3521 6.18619 36.4351 6.20464 36.5095 6.24291L41.2521 8.69561C41.3335 8.73706 41.4017 8.80054 41.449 8.87887C41.4964 8.95721 41.521 9.04729 41.5201 9.13894Z" fill="currentColor"/>
<path d="M48.0024 12.3489V32.1263C48.0023 32.1947 47.988 32.2623 47.9604 32.3249C47.9329 32.3874 47.8927 32.4435 47.8424 32.4896C47.7922 32.5357 47.7329 32.5708 47.6685 32.5926C47.604 32.6145 47.5357 32.6226 47.4679 32.6166L43.9027 31.9871C43.7817 31.9755 43.6693 31.919 43.5875 31.8286C43.5057 31.7383 43.4602 31.6206 43.46 31.4984V10.4364C43.4599 10.3516 43.4817 10.2683 43.5232 10.1945C43.5648 10.1207 43.6246 10.0589 43.697 10.0153C43.7693 9.97174 43.8517 9.94775 43.9361 9.9457C44.0204 9.94365 44.1038 9.96362 44.1782 10.0037L47.7434 11.9162C47.8217 11.9578 47.8872 12.0201 47.9328 12.0963C47.9785 12.1726 48.0025 12.2599 48.0024 12.3489Z" fill="currentColor"/>
<path d="M24.7676 33.208V36.2342H24.9182V33.2201L24.7676 33.208ZM24.9182 39.2603H24.7676V41.1471V41.2984L24.9182 41.2878L25.0688 41.2757H25.1576H25.2253H25.2946H25.4075H25.4452H25.528H25.6017H25.7523L25.7418 41.1244L24.9227 41.1849V39.3087L24.9182 39.2603ZM28.8327 38.0604H28.6822V41.0049H28.7575H28.8388V38.0604H28.8327ZM27.3016 33.4229L27.288 33.5742L28.6822 33.6922V35.0343H28.8327V33.553L27.3016 33.4229Z" fill="currentColor"/>
</g>
<defs>
<clipPath id="clip0_53_448">
<rect width="47.9953" height="52.251" fill="white"/>
</clipPath>
</defs>
</svg>
